M48
;Layer_Color=9474304
;FILE_FORMAT=2:5
INCH,TZ
;TYPE=PLATED
T1F00S00C0.02756
T2F00S00C0.03000
%
T01
X363079Y60000
X372921
Y140000
X363079
X103000
X93158
Y59000
X103000
Y220000
X93158
X363079Y221000
X372921
T02
X78740Y10000
X88740
X98740
X108740
X118740
X128740
X138740
X148740
X158740
X168740
X178740
X188740
X198740
X208740
X218740
X228740
X238740
X248740
X258740
X268740
X278740
X288740
X298740
X308740
X318740
X328740
X338740
X348740
X358740
X368740
X378740
Y30000
X368740
X358740
Y90000
X368740
X378740
Y110000
X368740
X358740
Y170000
X368740
X378740
X348740
X338740
X328740
X318740
X308740
X298740
X288740
X278740
X268740
X258740
X248740
X238740
X228740
X218740
X208740
X198740
Y110000
X208740
X218740
X228740
X238740
X248740
X258740
X268740
X278740
X288740
X298740
X308740
X318740
X328740
X338740
X348740
Y90000
X338740
X328740
X318740
X308740
X298740
X288740
X278740
X268740
X258740
X248740
X238740
X228740
X218740
X208740
X198740
Y30000
X208740
X218740
X228740
X238740
X248740
X258740
X268740
X278740
X288740
X298740
X308740
X318740
X328740
X338740
X348740
X188740
X178740
X168740
X158740
X148740
X138740
X128740
X118740
X108740
X98740
X88740
X78740
Y90000
X88740
X98740
X108740
X118740
X128740
X138740
X148740
X158740
X168740
X178740
X188740
Y110000
X178740
X168740
X158740
X148740
X138740
X128740
X118740
X108740
X98740
X88740
X78740
Y170000
X88740
X98740
X108740
X118740
X128740
X138740
X148740
X158740
X168740
X178740
X188740
Y190000
X178740
X168740
X158740
X148740
X138740
X128740
X118740
X108740
X98740
X88740
X78740
Y250000
X88740
X98740
X108740
X118740
X128740
X138740
X148740
X158740
X168740
X178740
X188740
Y270000
X178740
X168740
X158740
X148740
X138740
X128740
X118740
X108740
X98740
X88740
X78740
X198740
X208740
X218740
X228740
X238740
X248740
X258740
X268740
X278740
X288740
X298740
X308740
X318740
X328740
X338740
X348740
Y250000
X338740
X328740
X318740
X308740
X298740
X288740
X278740
X268740
X258740
X248740
X238740
X228740
X218740
X208740
X198740
Y190000
X208740
X218740
X228740
X238740
X248740
X258740
X268740
X278740
X288740
X298740
X308740
X318740
X328740
X338740
X348740
X358740
X368740
X378740
Y250000
X368740
X358740
Y270000
X368740
X378740
M30
