G04*
G04 #@! TF.GenerationSoftware,Altium Limited,Altium Designer,22.7.1 (60)*
G04*
G04 Layer_Color=65535*
%FSLAX25Y25*%
%MOIN*%
G70*
G04*
G04 #@! TF.SameCoordinates,DFFA79DD-968F-4C92-B8CD-37D8C3B2A3C2*
G04*
G04*
G04 #@! TF.FilePolarity,Positive*
G04*
G01*
G75*
%ADD10C,0.02000*%
%ADD11C,0.00787*%
%ADD12C,0.00600*%
%ADD13C,0.01968*%
%ADD14C,0.00591*%
%ADD15C,0.01000*%
G36*
X202003Y152748D02*
X202186D01*
Y152687D01*
X202308D01*
Y152626D01*
X202430D01*
Y152565D01*
X202552D01*
Y152504D01*
X202613D01*
Y152443D01*
X202735D01*
Y152382D01*
X202796D01*
Y152321D01*
X202857D01*
Y152260D01*
X202918D01*
Y152199D01*
X203040D01*
Y152138D01*
X203101D01*
Y152077D01*
X203162D01*
Y152016D01*
X203284D01*
Y151955D01*
X203406D01*
Y151894D01*
X203467D01*
Y151833D01*
X203589D01*
Y151772D01*
X203772D01*
Y151711D01*
X203955D01*
Y151650D01*
X204199D01*
Y151589D01*
X204565D01*
Y151528D01*
X204870D01*
Y151467D01*
X205053D01*
Y151406D01*
X205236D01*
Y151345D01*
X205358D01*
Y151284D01*
X205480D01*
Y151223D01*
X205602D01*
Y151162D01*
X205724D01*
Y151101D01*
X205845D01*
Y151040D01*
X205906D01*
Y150979D01*
X206028D01*
Y150918D01*
X206089D01*
Y150857D01*
X206150D01*
Y150796D01*
X206211D01*
Y150735D01*
X206333D01*
Y150674D01*
X206394D01*
Y150613D01*
X206455D01*
Y150552D01*
X206516D01*
Y150491D01*
X206577D01*
Y150430D01*
X206638D01*
Y150369D01*
X206699D01*
Y150308D01*
X206821D01*
Y150247D01*
X206882D01*
Y150186D01*
X206943D01*
Y150125D01*
X207004D01*
Y150064D01*
X207065D01*
Y150003D01*
X207126D01*
Y149942D01*
X207187D01*
Y149881D01*
X207248D01*
Y149820D01*
X207309D01*
Y149759D01*
X207370D01*
Y149698D01*
X207431D01*
Y149637D01*
X207492D01*
Y149576D01*
X207614D01*
Y149515D01*
X207675D01*
Y149454D01*
X207736D01*
Y149393D01*
X207797D01*
Y149332D01*
X207858D01*
Y149271D01*
X207980D01*
Y149210D01*
X208041D01*
Y149149D01*
X208102D01*
Y149088D01*
X208163D01*
Y149027D01*
X208285D01*
Y148966D01*
X208346D01*
Y148905D01*
X208407D01*
Y148844D01*
X208529D01*
Y148783D01*
X208590D01*
Y148722D01*
X208651D01*
Y148661D01*
X208773D01*
Y148600D01*
X208834D01*
Y148539D01*
X208895D01*
Y148478D01*
X208956D01*
Y148417D01*
X209017D01*
Y148356D01*
X209078D01*
Y148295D01*
X209139D01*
Y148173D01*
X209200D01*
Y148112D01*
X209261D01*
Y147625D01*
X209200D01*
Y147442D01*
X209139D01*
Y147320D01*
X209078D01*
Y147259D01*
X209017D01*
Y147198D01*
X208956D01*
Y147076D01*
X208895D01*
Y147015D01*
X208834D01*
Y146954D01*
X208773D01*
Y146893D01*
X208712D01*
Y146832D01*
X208651D01*
Y146771D01*
X208529D01*
Y146710D01*
X208468D01*
Y146649D01*
X208407D01*
Y146588D01*
X208285D01*
Y146527D01*
X208224D01*
Y146466D01*
X208102D01*
Y146405D01*
X207980D01*
Y146344D01*
X207797D01*
Y146283D01*
X207431D01*
Y146222D01*
X206699D01*
Y146161D01*
X206211D01*
Y146100D01*
X205906D01*
Y146039D01*
X205602D01*
Y145978D01*
X205480D01*
Y145917D01*
X205296D01*
Y145856D01*
X205114D01*
Y145795D01*
X204992D01*
Y145734D01*
X204870D01*
Y145673D01*
X204748D01*
Y145612D01*
X204626D01*
Y145551D01*
X204565D01*
Y145490D01*
X204443D01*
Y145429D01*
X204382D01*
Y145368D01*
X204321D01*
Y145307D01*
X204260D01*
Y145246D01*
X204138D01*
Y145185D01*
X204077D01*
Y145124D01*
X204016D01*
Y145002D01*
X203955D01*
Y144941D01*
X203894D01*
Y144880D01*
X203833D01*
Y144758D01*
X203772D01*
Y144697D01*
X203711D01*
Y144636D01*
X203650D01*
Y144514D01*
X203589D01*
Y144392D01*
X203528D01*
Y144270D01*
X203467D01*
Y144148D01*
X203406D01*
Y143965D01*
X203345D01*
Y143782D01*
X203284D01*
Y143599D01*
X203223D01*
Y143355D01*
X203162D01*
Y143112D01*
X203101D01*
Y142929D01*
X203040D01*
Y142684D01*
X202979D01*
Y142441D01*
X202918D01*
Y142197D01*
X202857D01*
Y142075D01*
X202796D01*
Y141892D01*
X202735D01*
Y141709D01*
X202674D01*
Y141587D01*
X202613D01*
Y141404D01*
X202552D01*
Y141221D01*
X202491D01*
Y141099D01*
X202430D01*
Y140977D01*
X202369D01*
Y140855D01*
X202308D01*
Y140733D01*
X202247D01*
Y140611D01*
X202186D01*
Y140489D01*
X202125D01*
Y140367D01*
X202064D01*
Y140245D01*
X202003D01*
Y140184D01*
X201942D01*
Y140062D01*
X201881D01*
Y140001D01*
X201820D01*
Y139879D01*
X201759D01*
Y139757D01*
X201698D01*
Y139696D01*
X201637D01*
Y139574D01*
X201576D01*
Y139513D01*
X201515D01*
Y139391D01*
X201454D01*
Y139330D01*
X201393D01*
Y139269D01*
X201332D01*
Y139208D01*
X201271D01*
Y139086D01*
X201210D01*
Y139025D01*
X201149D01*
Y138964D01*
X201088D01*
Y138903D01*
X201027D01*
Y138781D01*
X200966D01*
Y138720D01*
X200905D01*
Y138659D01*
X200844D01*
Y138598D01*
X200783D01*
Y138537D01*
X200722D01*
Y138476D01*
X200661D01*
Y138415D01*
X200600D01*
Y138354D01*
X200539D01*
Y138293D01*
X200478D01*
Y138232D01*
X200417D01*
Y138171D01*
X200357D01*
Y138110D01*
X200295D01*
Y138049D01*
X200235D01*
Y137988D01*
X200173D01*
Y137927D01*
X200113D01*
Y137866D01*
X200051D01*
Y137805D01*
X199929D01*
Y137744D01*
X199869D01*
Y137683D01*
X199808D01*
Y137622D01*
X199747D01*
Y137562D01*
X199625D01*
Y137501D01*
X199564D01*
Y137440D01*
X199503D01*
Y137379D01*
X199381D01*
Y137318D01*
X199320D01*
Y137257D01*
X199259D01*
Y137196D01*
X199137D01*
Y137135D01*
X199076D01*
Y137074D01*
X198954D01*
Y137013D01*
X198893D01*
Y136952D01*
X198771D01*
Y136891D01*
X198649D01*
Y136830D01*
X198588D01*
Y136769D01*
X198466D01*
Y136708D01*
X198405D01*
Y136647D01*
X198283D01*
Y136586D01*
X198222D01*
Y136525D01*
X198100D01*
Y136464D01*
X198039D01*
Y136403D01*
X197978D01*
Y136281D01*
X197917D01*
Y136220D01*
X197856D01*
Y136098D01*
X197795D01*
Y135915D01*
X197734D01*
Y135610D01*
X197673D01*
Y135305D01*
X197734D01*
Y134939D01*
X197795D01*
Y134634D01*
X197856D01*
Y134390D01*
X197917D01*
Y134207D01*
X197978D01*
Y133963D01*
X198039D01*
Y133841D01*
X198100D01*
Y133658D01*
X198161D01*
Y133475D01*
X198222D01*
Y133292D01*
X198283D01*
Y133170D01*
X198344D01*
Y132987D01*
X198405D01*
Y132865D01*
X198466D01*
Y132743D01*
X198527D01*
Y132622D01*
X198588D01*
Y132500D01*
X198649D01*
Y132378D01*
X198710D01*
Y132255D01*
X198771D01*
Y132133D01*
X198832D01*
Y132012D01*
X198893D01*
Y131951D01*
X198954D01*
Y131829D01*
X199015D01*
Y131707D01*
X199076D01*
Y131585D01*
X199137D01*
Y131524D01*
X199198D01*
Y131402D01*
X199259D01*
Y131280D01*
X199320D01*
Y131219D01*
X199381D01*
Y131097D01*
X199442D01*
Y131036D01*
X199564D01*
Y130975D01*
X199747D01*
Y130914D01*
X199869D01*
Y130853D01*
X200051D01*
Y130792D01*
X200295D01*
Y130731D01*
X200478D01*
Y130670D01*
X200661D01*
Y130609D01*
X200844D01*
Y130548D01*
X201027D01*
Y130487D01*
X201210D01*
Y130426D01*
X201332D01*
Y130365D01*
X201454D01*
Y130304D01*
X201515D01*
Y130243D01*
X201637D01*
Y130182D01*
X201698D01*
Y130121D01*
X201759D01*
Y130060D01*
X201820D01*
Y129999D01*
X201881D01*
Y129877D01*
X201942D01*
Y129633D01*
X202003D01*
Y129206D01*
X201942D01*
Y129023D01*
X201881D01*
Y128962D01*
X201820D01*
Y128840D01*
X201759D01*
Y128779D01*
X201637D01*
Y128718D01*
X201515D01*
Y128657D01*
X201332D01*
Y128596D01*
X201088D01*
Y128535D01*
X200539D01*
Y128474D01*
X199564D01*
Y128535D01*
X199198D01*
Y128596D01*
X198954D01*
Y128657D01*
X198771D01*
Y128718D01*
X198649D01*
Y128779D01*
X198527D01*
Y128840D01*
X198405D01*
Y128901D01*
X198283D01*
Y128962D01*
X198222D01*
Y129023D01*
X198161D01*
Y129084D01*
X198039D01*
Y129145D01*
X197978D01*
Y129206D01*
X197917D01*
Y129267D01*
X197856D01*
Y129328D01*
X197795D01*
Y129450D01*
X197734D01*
Y129511D01*
X197673D01*
Y129572D01*
X197612D01*
Y129694D01*
X197551D01*
Y129755D01*
X197490D01*
Y129877D01*
X197429D01*
Y129999D01*
X197368D01*
Y130121D01*
X197307D01*
Y130243D01*
X197246D01*
Y130365D01*
X197185D01*
Y130487D01*
X197124D01*
Y130609D01*
X197063D01*
Y130670D01*
X197002D01*
Y130792D01*
X196941D01*
Y130914D01*
X196880D01*
Y130975D01*
X196819D01*
Y131097D01*
X196758D01*
Y131158D01*
X196697D01*
Y131280D01*
X196636D01*
Y131341D01*
X196575D01*
Y131402D01*
X196514D01*
Y131524D01*
X196453D01*
Y131585D01*
X196392D01*
Y131646D01*
X196331D01*
Y131707D01*
X196270D01*
Y131829D01*
X196209D01*
Y131890D01*
X196148D01*
Y131951D01*
X196087D01*
Y132012D01*
X196026D01*
Y132073D01*
X195965D01*
Y132133D01*
X195904D01*
Y132255D01*
X195843D01*
Y132317D01*
X195782D01*
Y132378D01*
X195721D01*
Y132439D01*
X195660D01*
Y132500D01*
X195599D01*
Y132561D01*
X195538D01*
Y132622D01*
X195477D01*
Y132743D01*
X195416D01*
Y132804D01*
X195355D01*
Y132865D01*
X195294D01*
Y132926D01*
X195233D01*
Y132987D01*
X195173D01*
Y133048D01*
X195112D01*
Y133109D01*
X195051D01*
Y133170D01*
X194990D01*
Y133292D01*
X194929D01*
Y133353D01*
X194868D01*
Y133414D01*
X194807D01*
Y133475D01*
X194746D01*
Y133536D01*
X194685D01*
Y133597D01*
X194624D01*
Y133658D01*
X194563D01*
Y133719D01*
X194502D01*
Y133780D01*
X194319D01*
Y133841D01*
X194258D01*
Y133780D01*
X194136D01*
Y133719D01*
X194075D01*
Y133597D01*
X194014D01*
Y133536D01*
X193953D01*
Y133414D01*
X193892D01*
Y133353D01*
X193831D01*
Y133231D01*
X193770D01*
Y133170D01*
X193709D01*
Y133048D01*
X193648D01*
Y132926D01*
X193587D01*
Y132865D01*
X193526D01*
Y132743D01*
X193465D01*
Y132682D01*
X193404D01*
Y132561D01*
X193343D01*
Y132439D01*
X193282D01*
Y132317D01*
X193221D01*
Y132194D01*
X193160D01*
Y132073D01*
X193099D01*
Y131951D01*
X193038D01*
Y131768D01*
X192977D01*
Y131585D01*
X192916D01*
Y131402D01*
X192855D01*
Y130792D01*
X192916D01*
Y130670D01*
X192977D01*
Y130548D01*
X193099D01*
Y130487D01*
X193160D01*
Y130426D01*
X193282D01*
Y130365D01*
X193526D01*
Y130304D01*
X194197D01*
Y130243D01*
X194380D01*
Y130182D01*
X194502D01*
Y130121D01*
X194563D01*
Y130060D01*
X194624D01*
Y129999D01*
X194685D01*
Y129938D01*
X194746D01*
Y129877D01*
X194807D01*
Y129755D01*
X194868D01*
Y129572D01*
X194929D01*
Y128962D01*
X194868D01*
Y128840D01*
X194807D01*
Y128779D01*
X194746D01*
Y128718D01*
X194685D01*
Y128657D01*
X194563D01*
Y128596D01*
X194441D01*
Y128535D01*
X194319D01*
Y128474D01*
X194075D01*
Y128413D01*
X193831D01*
Y128352D01*
X193465D01*
Y128291D01*
X192489D01*
Y128352D01*
X192062D01*
Y128413D01*
X191818D01*
Y128474D01*
X191574D01*
Y128535D01*
X191391D01*
Y128596D01*
X191269D01*
Y128657D01*
X191208D01*
Y128718D01*
X191086D01*
Y128779D01*
X191025D01*
Y128840D01*
X190964D01*
Y128901D01*
X190903D01*
Y128962D01*
X190842D01*
Y129023D01*
X190781D01*
Y129145D01*
X190720D01*
Y129206D01*
X190659D01*
Y129389D01*
X190598D01*
Y129572D01*
X190537D01*
Y129877D01*
X190476D01*
Y134451D01*
X190415D01*
Y134634D01*
X190354D01*
Y134695D01*
X190293D01*
Y134817D01*
X190232D01*
Y134878D01*
X190110D01*
Y134939D01*
X189988D01*
Y135000D01*
X188586D01*
Y134939D01*
X187000D01*
Y135000D01*
X186268D01*
Y135061D01*
X185780D01*
Y135122D01*
X185353D01*
Y135183D01*
X185048D01*
Y135244D01*
X184743D01*
Y135305D01*
X184500D01*
Y135366D01*
X184256D01*
Y135427D01*
X184073D01*
Y135488D01*
X183829D01*
Y135549D01*
X183646D01*
Y135610D01*
X183463D01*
Y135671D01*
X183280D01*
Y135732D01*
X183097D01*
Y135793D01*
X182975D01*
Y135854D01*
X182792D01*
Y135915D01*
X182609D01*
Y135976D01*
X182182D01*
Y135915D01*
X182121D01*
Y135793D01*
X182060D01*
Y135610D01*
X181999D01*
Y135305D01*
X181938D01*
Y134939D01*
X181877D01*
Y134695D01*
X181816D01*
Y134451D01*
X181755D01*
Y134268D01*
X181694D01*
Y134085D01*
X181633D01*
Y133963D01*
X181572D01*
Y133841D01*
X181511D01*
Y133719D01*
X181450D01*
Y133597D01*
X181389D01*
Y133475D01*
X181328D01*
Y133414D01*
X181267D01*
Y133292D01*
X181206D01*
Y133231D01*
X181145D01*
Y133170D01*
X181084D01*
Y133048D01*
X181023D01*
Y132987D01*
X180962D01*
Y132926D01*
X180901D01*
Y132865D01*
X180840D01*
Y132804D01*
X180779D01*
Y132743D01*
X180657D01*
Y132682D01*
X180596D01*
Y132622D01*
X180535D01*
Y132500D01*
X180474D01*
Y132378D01*
X180413D01*
Y132133D01*
X180474D01*
Y131951D01*
X180535D01*
Y131890D01*
X180596D01*
Y131768D01*
X180657D01*
Y131707D01*
X180718D01*
Y131585D01*
X180779D01*
Y131524D01*
X180840D01*
Y131463D01*
X180901D01*
Y131402D01*
X180962D01*
Y131341D01*
X181023D01*
Y131280D01*
X181084D01*
Y131219D01*
X181206D01*
Y131158D01*
X181267D01*
Y131097D01*
X181389D01*
Y131036D01*
X181511D01*
Y130975D01*
X181755D01*
Y130914D01*
X182731D01*
Y130853D01*
X183463D01*
Y130792D01*
X183768D01*
Y130731D01*
X183951D01*
Y130670D01*
X184073D01*
Y130609D01*
X184195D01*
Y130548D01*
X184256D01*
Y130487D01*
X184317D01*
Y130426D01*
X184439D01*
Y130304D01*
X184500D01*
Y130243D01*
X184561D01*
Y130121D01*
X184622D01*
Y130060D01*
X184682D01*
Y129938D01*
X184743D01*
Y129816D01*
X184804D01*
Y129633D01*
X184865D01*
Y129511D01*
X184926D01*
Y128962D01*
X184865D01*
Y128779D01*
X184804D01*
Y128718D01*
X184743D01*
Y128596D01*
X184682D01*
Y128535D01*
X184561D01*
Y128474D01*
X184439D01*
Y128413D01*
X184195D01*
Y128352D01*
X183463D01*
Y128291D01*
X182121D01*
Y128352D01*
X181755D01*
Y128413D01*
X181511D01*
Y128474D01*
X181389D01*
Y128535D01*
X181206D01*
Y128596D01*
X181023D01*
Y128657D01*
X180901D01*
Y128718D01*
X180779D01*
Y128779D01*
X180657D01*
Y128840D01*
X180535D01*
Y128901D01*
X180413D01*
Y128962D01*
X180352D01*
Y129023D01*
X180230D01*
Y129084D01*
X180169D01*
Y129145D01*
X180047D01*
Y129206D01*
X179986D01*
Y129267D01*
X179925D01*
Y129328D01*
X179864D01*
Y129389D01*
X179742D01*
Y129450D01*
X179681D01*
Y129511D01*
X179620D01*
Y129572D01*
X179559D01*
Y129633D01*
X179437D01*
Y129694D01*
X179376D01*
Y129755D01*
X179315D01*
Y129816D01*
X179254D01*
Y129877D01*
X179193D01*
Y129938D01*
X179132D01*
Y129999D01*
X179071D01*
Y130060D01*
X179010D01*
Y130121D01*
X178949D01*
Y130182D01*
X178888D01*
Y130243D01*
X178828D01*
Y130304D01*
X178767D01*
Y130365D01*
X178645D01*
Y130426D01*
X178584D01*
Y130487D01*
X178462D01*
Y130548D01*
X178340D01*
Y130609D01*
X178279D01*
Y130670D01*
X178157D01*
Y130731D01*
X177974D01*
Y130792D01*
X177791D01*
Y130853D01*
X177608D01*
Y130914D01*
X177425D01*
Y130975D01*
X177303D01*
Y131036D01*
X177181D01*
Y131097D01*
X177059D01*
Y131158D01*
X176998D01*
Y131219D01*
X176937D01*
Y131280D01*
X176876D01*
Y131341D01*
X176815D01*
Y131402D01*
X176754D01*
Y131463D01*
X176693D01*
Y131524D01*
X176632D01*
Y131646D01*
X176571D01*
Y131768D01*
X176510D01*
Y132012D01*
X176449D01*
Y132682D01*
X176510D01*
Y132926D01*
X176388D01*
Y132865D01*
X176327D01*
Y132804D01*
X176266D01*
Y132743D01*
X176144D01*
Y132682D01*
X176083D01*
Y132622D01*
X176022D01*
Y132561D01*
X175900D01*
Y132500D01*
X175839D01*
Y132439D01*
X175778D01*
Y132378D01*
X175656D01*
Y132317D01*
X175595D01*
Y132255D01*
X175473D01*
Y132194D01*
X175412D01*
Y132133D01*
X175290D01*
Y132073D01*
X175229D01*
Y132012D01*
X175107D01*
Y131951D01*
X175046D01*
Y131890D01*
X174924D01*
Y131829D01*
X174802D01*
Y131768D01*
X174680D01*
Y131707D01*
X174558D01*
Y131646D01*
X174436D01*
Y131585D01*
X174253D01*
Y131524D01*
X174131D01*
Y131463D01*
X173949D01*
Y131402D01*
X173766D01*
Y131341D01*
X173582D01*
Y131280D01*
X173522D01*
Y131219D01*
X173461D01*
Y131097D01*
X173400D01*
Y130975D01*
X173461D01*
Y130792D01*
X173522D01*
Y130731D01*
X173582D01*
Y130670D01*
X173705D01*
Y130609D01*
X174010D01*
Y130548D01*
X175412D01*
Y130487D01*
X175595D01*
Y130426D01*
X175778D01*
Y130365D01*
X175900D01*
Y130304D01*
X175961D01*
Y130243D01*
X176022D01*
Y130182D01*
X176083D01*
Y130121D01*
X176144D01*
Y130060D01*
X176205D01*
Y129999D01*
X176266D01*
Y129877D01*
X176327D01*
Y129816D01*
X176388D01*
Y129694D01*
X176449D01*
Y129511D01*
X176510D01*
Y128779D01*
X176449D01*
Y128657D01*
X176388D01*
Y128535D01*
X176266D01*
Y128474D01*
X176205D01*
Y128413D01*
X176022D01*
Y128352D01*
X175717D01*
Y128291D01*
X174558D01*
Y128352D01*
X173766D01*
Y128413D01*
X173156D01*
Y128474D01*
X172729D01*
Y128535D01*
X172241D01*
Y128596D01*
X172058D01*
Y128657D01*
X171936D01*
Y128718D01*
X171875D01*
Y128779D01*
X171753D01*
Y128840D01*
X171692D01*
Y128962D01*
X171631D01*
Y129023D01*
X171570D01*
Y129145D01*
X171509D01*
Y129206D01*
X171448D01*
Y129328D01*
X171387D01*
Y129450D01*
X171326D01*
Y129572D01*
X171265D01*
Y129694D01*
X171204D01*
Y129816D01*
X171143D01*
Y129877D01*
X171082D01*
Y129999D01*
X171021D01*
Y130121D01*
X170960D01*
Y130182D01*
X170899D01*
Y130243D01*
X170838D01*
Y130365D01*
X170777D01*
Y130426D01*
X170716D01*
Y130487D01*
X170655D01*
Y130548D01*
X170594D01*
Y130670D01*
X170533D01*
Y130731D01*
X170472D01*
Y130792D01*
X170411D01*
Y130853D01*
X170350D01*
Y130914D01*
X170289D01*
Y130975D01*
X170228D01*
Y131036D01*
X170167D01*
Y131097D01*
X170106D01*
Y131219D01*
X170045D01*
Y131341D01*
X169984D01*
Y131524D01*
X169923D01*
Y131890D01*
X169984D01*
Y132012D01*
X170045D01*
Y132133D01*
X170106D01*
Y132255D01*
X170167D01*
Y132317D01*
X170228D01*
Y132378D01*
X170289D01*
Y132439D01*
X170350D01*
Y132500D01*
X170411D01*
Y132561D01*
X170472D01*
Y132622D01*
X170594D01*
Y132682D01*
X170655D01*
Y132743D01*
X170716D01*
Y132804D01*
X170777D01*
Y132865D01*
X170838D01*
Y132926D01*
X170899D01*
Y132987D01*
X170960D01*
Y133048D01*
X171021D01*
Y133109D01*
X171082D01*
Y133170D01*
X171143D01*
Y133231D01*
X171204D01*
Y133292D01*
X171265D01*
Y133353D01*
X171326D01*
Y133414D01*
X171387D01*
Y133536D01*
X171448D01*
Y133658D01*
X171509D01*
Y133780D01*
X171570D01*
Y133841D01*
X171631D01*
Y134024D01*
X171692D01*
Y134146D01*
X171753D01*
Y134512D01*
X171692D01*
Y134634D01*
X171570D01*
Y134695D01*
X171204D01*
Y134634D01*
X171082D01*
Y134573D01*
X171021D01*
Y134512D01*
X170960D01*
Y134451D01*
X170838D01*
Y134390D01*
X170777D01*
Y134329D01*
X170716D01*
Y134268D01*
X170655D01*
Y134207D01*
X170594D01*
Y134146D01*
X170472D01*
Y134085D01*
X170411D01*
Y134024D01*
X170350D01*
Y133963D01*
X170289D01*
Y133902D01*
X170167D01*
Y133841D01*
X170106D01*
Y133780D01*
X170045D01*
Y133719D01*
X169984D01*
Y133658D01*
X169923D01*
Y133597D01*
X169801D01*
Y133536D01*
X169740D01*
Y133475D01*
X169679D01*
Y133414D01*
X169618D01*
Y133353D01*
X169557D01*
Y133292D01*
X169435D01*
Y133231D01*
X169374D01*
Y133170D01*
X169313D01*
Y133109D01*
X169252D01*
Y133048D01*
X169191D01*
Y132987D01*
X169069D01*
Y132926D01*
X169008D01*
Y132865D01*
X168947D01*
Y132804D01*
X168886D01*
Y132743D01*
X168825D01*
Y132682D01*
X168703D01*
Y132622D01*
X168642D01*
Y132561D01*
X168581D01*
Y132500D01*
X168459D01*
Y132439D01*
X168398D01*
Y132378D01*
X168338D01*
Y132317D01*
X168277D01*
Y132255D01*
X168155D01*
Y132194D01*
X168094D01*
Y132133D01*
X168033D01*
Y132073D01*
X167911D01*
Y132012D01*
X167850D01*
Y131951D01*
X167789D01*
Y131890D01*
X167667D01*
Y131829D01*
X167606D01*
Y131768D01*
X167545D01*
Y131707D01*
X167423D01*
Y131646D01*
X167362D01*
Y131585D01*
X167240D01*
Y131524D01*
X167179D01*
Y131463D01*
X167118D01*
Y131402D01*
X166996D01*
Y131341D01*
X166935D01*
Y131280D01*
X166874D01*
Y131219D01*
X166752D01*
Y131158D01*
X166630D01*
Y131097D01*
X166569D01*
Y131036D01*
X166447D01*
Y130975D01*
X166386D01*
Y130914D01*
X166264D01*
Y130853D01*
X166203D01*
Y130792D01*
X166081D01*
Y130731D01*
X166020D01*
Y130670D01*
X165898D01*
Y130609D01*
X165776D01*
Y130548D01*
X165715D01*
Y130487D01*
X165593D01*
Y130426D01*
X165471D01*
Y130365D01*
X165349D01*
Y130304D01*
X165227D01*
Y130243D01*
X165105D01*
Y130182D01*
X165044D01*
Y130121D01*
X164922D01*
Y130060D01*
X164800D01*
Y129999D01*
X164678D01*
Y129938D01*
X164556D01*
Y129877D01*
X164434D01*
Y129816D01*
X164312D01*
Y129755D01*
X164129D01*
Y129694D01*
X164007D01*
Y129633D01*
X163885D01*
Y129572D01*
X163702D01*
Y129511D01*
X163580D01*
Y129450D01*
X163398D01*
Y129389D01*
X163215D01*
Y129328D01*
X163031D01*
Y129267D01*
X162849D01*
Y129206D01*
X162666D01*
Y129145D01*
X162483D01*
Y129084D01*
X162239D01*
Y129023D01*
X161995D01*
Y128962D01*
X161690D01*
Y128901D01*
X161385D01*
Y128840D01*
X160958D01*
Y128779D01*
X160531D01*
Y128718D01*
X160104D01*
Y128657D01*
X159372D01*
Y128596D01*
X157055D01*
Y128657D01*
X156506D01*
Y128718D01*
X156140D01*
Y128779D01*
X155835D01*
Y128840D01*
X155530D01*
Y128901D01*
X155347D01*
Y128962D01*
X155103D01*
Y129023D01*
X154920D01*
Y129084D01*
X154737D01*
Y129145D01*
X154554D01*
Y129206D01*
X154371D01*
Y129267D01*
X154249D01*
Y129328D01*
X154066D01*
Y129389D01*
X153944D01*
Y129450D01*
X153761D01*
Y129511D01*
X153639D01*
Y129572D01*
X153517D01*
Y129633D01*
X153395D01*
Y129694D01*
X153273D01*
Y129755D01*
X153212D01*
Y129816D01*
X153090D01*
Y129877D01*
X152969D01*
Y129938D01*
X152908D01*
Y129999D01*
X152786D01*
Y130060D01*
X152664D01*
Y130121D01*
X152603D01*
Y130182D01*
X152480D01*
Y130243D01*
X152420D01*
Y130304D01*
X152359D01*
Y130365D01*
X152237D01*
Y130426D01*
X152176D01*
Y130487D01*
X152054D01*
Y130548D01*
X151993D01*
Y130609D01*
X151932D01*
Y130670D01*
X151810D01*
Y130731D01*
X151749D01*
Y130792D01*
X151688D01*
Y130853D01*
X151627D01*
Y130914D01*
X151566D01*
Y130975D01*
X151505D01*
Y131097D01*
X151444D01*
Y131158D01*
X151383D01*
Y131280D01*
X151322D01*
Y131402D01*
X151261D01*
Y132012D01*
X151322D01*
Y132194D01*
X151383D01*
Y132317D01*
X151444D01*
Y132439D01*
X151505D01*
Y132500D01*
X151566D01*
Y132561D01*
X151627D01*
Y132622D01*
X151688D01*
Y132682D01*
X151749D01*
Y132743D01*
X151810D01*
Y132804D01*
X151932D01*
Y132865D01*
X152054D01*
Y132926D01*
X152115D01*
Y132987D01*
X152237D01*
Y133048D01*
X152420D01*
Y133109D01*
X152541D01*
Y133170D01*
X152664D01*
Y133231D01*
X152847D01*
Y133292D01*
X153029D01*
Y133353D01*
X153212D01*
Y133414D01*
X153456D01*
Y133475D01*
X153761D01*
Y133536D01*
X154127D01*
Y133597D01*
X154798D01*
Y133658D01*
X157726D01*
Y133597D01*
X161019D01*
Y133658D01*
X161751D01*
Y133719D01*
X162239D01*
Y133780D01*
X162666D01*
Y133841D01*
X162971D01*
Y133902D01*
X163215D01*
Y133963D01*
X163520D01*
Y134024D01*
X163763D01*
Y134085D01*
X163946D01*
Y134146D01*
X164129D01*
Y134207D01*
X164312D01*
Y134268D01*
X164495D01*
Y134329D01*
X164678D01*
Y134390D01*
X164800D01*
Y134451D01*
X164922D01*
Y134512D01*
X165105D01*
Y134573D01*
X165227D01*
Y134634D01*
X165349D01*
Y134695D01*
X165471D01*
Y134756D01*
X165593D01*
Y134817D01*
X165715D01*
Y134878D01*
X165776D01*
Y134939D01*
X165898D01*
Y135000D01*
X166020D01*
Y135061D01*
X166142D01*
Y135122D01*
X166203D01*
Y135183D01*
X166325D01*
Y135244D01*
X166386D01*
Y135305D01*
X166447D01*
Y135366D01*
X166569D01*
Y135427D01*
X166630D01*
Y135488D01*
X166691D01*
Y135549D01*
X166813D01*
Y135610D01*
X166874D01*
Y135671D01*
X166935D01*
Y135732D01*
X166996D01*
Y135793D01*
X167057D01*
Y135854D01*
X167118D01*
Y135915D01*
X167240D01*
Y135976D01*
X167301D01*
Y136037D01*
X167362D01*
Y136098D01*
X167423D01*
Y136159D01*
X167484D01*
Y136220D01*
X167545D01*
Y136281D01*
X167606D01*
Y136342D01*
X167667D01*
Y136403D01*
X167728D01*
Y136525D01*
X167789D01*
Y136586D01*
X167850D01*
Y136647D01*
X167911D01*
Y136708D01*
X167972D01*
Y136769D01*
X168033D01*
Y136830D01*
X168094D01*
Y136891D01*
X168155D01*
Y137013D01*
X168216D01*
Y137074D01*
X168277D01*
Y137196D01*
X168338D01*
Y137257D01*
X168398D01*
Y137318D01*
X168459D01*
Y137440D01*
X168520D01*
Y137501D01*
X168581D01*
Y137622D01*
X168642D01*
Y137683D01*
X168703D01*
Y137805D01*
X168764D01*
Y137866D01*
X168825D01*
Y137988D01*
X168886D01*
Y138110D01*
X168947D01*
Y138171D01*
X169008D01*
Y138293D01*
X169069D01*
Y138354D01*
X169130D01*
Y138476D01*
X169191D01*
Y138598D01*
X169252D01*
Y138659D01*
X169313D01*
Y138781D01*
X169374D01*
Y138903D01*
X169435D01*
Y138964D01*
X169496D01*
Y139086D01*
X169557D01*
Y139147D01*
X169618D01*
Y139269D01*
X169679D01*
Y139391D01*
X169740D01*
Y139452D01*
X169801D01*
Y139574D01*
X169862D01*
Y139635D01*
X169923D01*
Y139757D01*
X169984D01*
Y139879D01*
X170045D01*
Y139940D01*
X170106D01*
Y140062D01*
X170167D01*
Y140123D01*
X170228D01*
Y140245D01*
X170289D01*
Y140367D01*
X170350D01*
Y140428D01*
X170411D01*
Y140550D01*
X170472D01*
Y140611D01*
X170533D01*
Y140733D01*
X170594D01*
Y140794D01*
X170655D01*
Y140916D01*
X170716D01*
Y140977D01*
X170777D01*
Y141099D01*
X170838D01*
Y141160D01*
X170899D01*
Y141282D01*
X170960D01*
Y141343D01*
X171021D01*
Y141465D01*
X171082D01*
Y141526D01*
X171143D01*
Y141648D01*
X171204D01*
Y141709D01*
X171265D01*
Y141770D01*
X171326D01*
Y141892D01*
X171387D01*
Y141953D01*
X171448D01*
Y142014D01*
X171509D01*
Y142136D01*
X171570D01*
Y142197D01*
X171631D01*
Y142258D01*
X171692D01*
Y142380D01*
X171753D01*
Y142441D01*
X171814D01*
Y142502D01*
X171875D01*
Y142563D01*
X171936D01*
Y142684D01*
X171997D01*
Y142745D01*
X172058D01*
Y142806D01*
X172119D01*
Y142868D01*
X172180D01*
Y142929D01*
X172241D01*
Y143051D01*
X172302D01*
Y143112D01*
X172363D01*
Y143173D01*
X172424D01*
Y143233D01*
X172485D01*
Y143294D01*
X172546D01*
Y143355D01*
X172607D01*
Y143416D01*
X172668D01*
Y143477D01*
X172729D01*
Y143538D01*
X172790D01*
Y143660D01*
X172851D01*
Y143721D01*
X172912D01*
Y143782D01*
X172973D01*
Y143843D01*
X173034D01*
Y143904D01*
X173095D01*
Y143965D01*
X173156D01*
Y144026D01*
X173217D01*
Y144087D01*
X173278D01*
Y144148D01*
X173400D01*
Y144209D01*
X173461D01*
Y144270D01*
X173522D01*
Y144331D01*
X173582D01*
Y144392D01*
X173644D01*
Y144453D01*
X173705D01*
Y144514D01*
X173766D01*
Y144575D01*
X173827D01*
Y144636D01*
X173888D01*
Y144697D01*
X174010D01*
Y144758D01*
X174071D01*
Y144819D01*
X174131D01*
Y144880D01*
X174192D01*
Y144941D01*
X174253D01*
Y145002D01*
X174375D01*
Y145063D01*
X174436D01*
Y145124D01*
X174497D01*
Y145185D01*
X174619D01*
Y145246D01*
X174680D01*
Y145307D01*
X174741D01*
Y145368D01*
X174863D01*
Y145429D01*
X174924D01*
Y145490D01*
X174985D01*
Y145551D01*
X175107D01*
Y145612D01*
X175168D01*
Y145673D01*
X175290D01*
Y145734D01*
X175351D01*
Y145795D01*
X175473D01*
Y145856D01*
X175534D01*
Y145917D01*
X175656D01*
Y145978D01*
X175778D01*
Y146039D01*
X175839D01*
Y146100D01*
X175961D01*
Y146161D01*
X176083D01*
Y146222D01*
X176205D01*
Y146283D01*
X176266D01*
Y146344D01*
X176388D01*
Y146405D01*
X176510D01*
Y146466D01*
X176632D01*
Y146527D01*
X176754D01*
Y146588D01*
X176876D01*
Y146649D01*
X176998D01*
Y146710D01*
X177120D01*
Y146771D01*
X177242D01*
Y146832D01*
X177425D01*
Y146893D01*
X177547D01*
Y146954D01*
X177730D01*
Y147015D01*
X177852D01*
Y147076D01*
X178035D01*
Y147137D01*
X178218D01*
Y147198D01*
X178401D01*
Y147259D01*
X178584D01*
Y147320D01*
X178767D01*
Y147381D01*
X178949D01*
Y147442D01*
X179193D01*
Y147503D01*
X179437D01*
Y147564D01*
X179681D01*
Y147625D01*
X179986D01*
Y147686D01*
X180291D01*
Y147747D01*
X180718D01*
Y147808D01*
X181206D01*
Y147869D01*
X183585D01*
Y147808D01*
X184134D01*
Y147747D01*
X184500D01*
Y147686D01*
X184865D01*
Y147625D01*
X185170D01*
Y147564D01*
X185475D01*
Y147503D01*
X185719D01*
Y147442D01*
X185963D01*
Y147381D01*
X186146D01*
Y147320D01*
X186390D01*
Y147259D01*
X186573D01*
Y147198D01*
X186756D01*
Y147137D01*
X186939D01*
Y147076D01*
X187122D01*
Y147015D01*
X187244D01*
Y146954D01*
X187427D01*
Y146893D01*
X187610D01*
Y146832D01*
X187732D01*
Y146771D01*
X187854D01*
Y146710D01*
X188037D01*
Y146649D01*
X188159D01*
Y146588D01*
X188281D01*
Y146527D01*
X188464D01*
Y146466D01*
X188586D01*
Y146405D01*
X188708D01*
Y146344D01*
X188830D01*
Y146283D01*
X188952D01*
Y146222D01*
X189074D01*
Y146161D01*
X189135D01*
Y146100D01*
X189257D01*
Y146039D01*
X189378D01*
Y145978D01*
X189500D01*
Y145917D01*
X189622D01*
Y145856D01*
X189744D01*
Y145795D01*
X189805D01*
Y145734D01*
X189927D01*
Y145673D01*
X190049D01*
Y145612D01*
X190110D01*
Y145551D01*
X190232D01*
Y145490D01*
X190293D01*
Y145429D01*
X190415D01*
Y145368D01*
X190537D01*
Y145307D01*
X190598D01*
Y145246D01*
X190720D01*
Y145185D01*
X190781D01*
Y145124D01*
X190903D01*
Y145063D01*
X191025D01*
Y145002D01*
X191086D01*
Y144941D01*
X191208D01*
Y144880D01*
X191330D01*
Y144819D01*
X191391D01*
Y144758D01*
X191513D01*
Y144697D01*
X191635D01*
Y144636D01*
X191757D01*
Y144575D01*
X191879D01*
Y144514D01*
X192001D01*
Y144453D01*
X192123D01*
Y144392D01*
X192245D01*
Y144331D01*
X192367D01*
Y144270D01*
X192550D01*
Y144209D01*
X192672D01*
Y144148D01*
X192855D01*
Y144087D01*
X193038D01*
Y144026D01*
X193343D01*
Y143965D01*
X193709D01*
Y144026D01*
X193953D01*
Y144087D01*
X194075D01*
Y144148D01*
X194197D01*
Y144209D01*
X194258D01*
Y144270D01*
X194380D01*
Y144331D01*
X194441D01*
Y144392D01*
X194502D01*
Y144453D01*
X194563D01*
Y144514D01*
X194624D01*
Y144575D01*
X194685D01*
Y144636D01*
X194746D01*
Y144697D01*
X194807D01*
Y144819D01*
X194868D01*
Y144880D01*
X194929D01*
Y144941D01*
X194990D01*
Y145002D01*
X195051D01*
Y145063D01*
X195112D01*
Y145185D01*
X195173D01*
Y145246D01*
X195233D01*
Y145307D01*
X195294D01*
Y145429D01*
X195355D01*
Y145490D01*
X195416D01*
Y145612D01*
X195477D01*
Y145673D01*
X195538D01*
Y145795D01*
X195599D01*
Y145856D01*
X195660D01*
Y145978D01*
X195721D01*
Y146039D01*
X195782D01*
Y146161D01*
X195843D01*
Y146283D01*
X195904D01*
Y146344D01*
X195965D01*
Y146466D01*
X196026D01*
Y146527D01*
X196087D01*
Y146649D01*
X196148D01*
Y146771D01*
X196209D01*
Y146832D01*
X196270D01*
Y146954D01*
X196331D01*
Y147076D01*
X196392D01*
Y147137D01*
X196453D01*
Y147259D01*
X196514D01*
Y147320D01*
X196575D01*
Y147442D01*
X196636D01*
Y147503D01*
X196697D01*
Y147625D01*
X196758D01*
Y147686D01*
X196819D01*
Y147808D01*
X196880D01*
Y147869D01*
X196941D01*
Y147991D01*
X197002D01*
Y148052D01*
X197063D01*
Y148173D01*
X197124D01*
Y148234D01*
X197185D01*
Y148295D01*
X197246D01*
Y148417D01*
X197307D01*
Y148478D01*
X197368D01*
Y148600D01*
X197429D01*
Y148661D01*
X197490D01*
Y148722D01*
X197551D01*
Y148783D01*
X197612D01*
Y148905D01*
X197673D01*
Y148966D01*
X197734D01*
Y149027D01*
X197795D01*
Y149088D01*
X197856D01*
Y149149D01*
X197917D01*
Y149210D01*
X197978D01*
Y149332D01*
X198039D01*
Y149393D01*
X198100D01*
Y149454D01*
X198161D01*
Y149515D01*
X198222D01*
Y149576D01*
X198283D01*
Y149637D01*
X198344D01*
Y149698D01*
X198405D01*
Y149759D01*
X198466D01*
Y149820D01*
X198527D01*
Y149881D01*
X198649D01*
Y149942D01*
X198710D01*
Y150003D01*
X198771D01*
Y150064D01*
X198832D01*
Y150125D01*
X198893D01*
Y150186D01*
X199015D01*
Y150247D01*
X199076D01*
Y150308D01*
X199137D01*
Y150369D01*
X199198D01*
Y150430D01*
X199320D01*
Y150491D01*
X199442D01*
Y150552D01*
X199503D01*
Y150613D01*
X199625D01*
Y150674D01*
X199686D01*
Y150735D01*
X199808D01*
Y150796D01*
X199869D01*
Y150857D01*
X199990D01*
Y150918D01*
X200051D01*
Y151040D01*
X200113D01*
Y151101D01*
X200173D01*
Y151284D01*
X200235D01*
Y151406D01*
X200295D01*
Y151589D01*
X200357D01*
Y151772D01*
X200417D01*
Y151894D01*
X200478D01*
Y152016D01*
X200539D01*
Y152138D01*
X200600D01*
Y152199D01*
X200661D01*
Y152321D01*
X200722D01*
Y152382D01*
X200783D01*
Y152443D01*
X200844D01*
Y152504D01*
X200905D01*
Y152565D01*
X201027D01*
Y152626D01*
X201088D01*
Y152687D01*
X201210D01*
Y152748D01*
X201393D01*
Y152809D01*
X202003D01*
Y152748D01*
D02*
G37*
%LPC*%
G36*
X206577Y149271D02*
X206150D01*
Y149210D01*
X206028D01*
Y149149D01*
X205967D01*
Y149027D01*
X205906D01*
Y148905D01*
Y148844D01*
X205967D01*
Y148722D01*
X206028D01*
Y148661D01*
X206089D01*
Y148600D01*
X206150D01*
Y148539D01*
X206272D01*
Y148478D01*
X206577D01*
Y148539D01*
X206760D01*
Y148600D01*
X206821D01*
Y148722D01*
X206882D01*
Y149027D01*
X206821D01*
Y149088D01*
X206760D01*
Y149149D01*
X206699D01*
Y149210D01*
X206577D01*
Y149271D01*
D02*
G37*
%LPD*%
D10*
X59240Y270000D02*
G03*
X59240Y270000I-1500J0D01*
G01*
Y190000D02*
G03*
X59240Y190000I-1500J0D01*
G01*
Y110000D02*
G03*
X59240Y110000I-1500J0D01*
G01*
Y30000D02*
G03*
X59240Y30000I-1500J0D01*
G01*
D11*
X380402Y221000D02*
G03*
X380402Y221000I-12402J0D01*
G01*
Y140000D02*
G03*
X380402Y140000I-12402J0D01*
G01*
Y60000D02*
G03*
X380402Y60000I-12402J0D01*
G01*
X110480Y220000D02*
G03*
X110480Y220000I-12402J0D01*
G01*
Y140000D02*
G03*
X110480Y140000I-12402J0D01*
G01*
Y59000D02*
G03*
X110480Y59000I-12402J0D01*
G01*
D12*
X60240Y241550D02*
Y279350D01*
X397240D01*
Y241550D02*
Y279350D01*
X60240Y241550D02*
X397240D01*
X60240Y161550D02*
Y199350D01*
X397240D01*
Y161550D02*
Y199350D01*
X60240Y161550D02*
X397240D01*
X60240Y81550D02*
Y119350D01*
X397240D01*
Y81550D02*
Y119350D01*
X60240Y81550D02*
X397240D01*
X60240Y1550D02*
Y39350D01*
X397240D01*
Y1550D02*
Y39350D01*
X60240Y1550D02*
X397240D01*
D13*
X195551Y61216D02*
X198175Y55968D01*
X200799Y61216D01*
X203423Y55968D02*
X206047D01*
X204735D01*
Y63840D01*
X203423Y62528D01*
X209982Y55968D02*
Y57280D01*
X211294D01*
Y55968D01*
X209982D01*
X216542Y62528D02*
X217854Y63840D01*
X220478D01*
X221789Y62528D01*
Y57280D01*
X220478Y55968D01*
X217854D01*
X216542Y57280D01*
Y62528D01*
X232285Y59904D02*
X237532D01*
X253275Y55968D02*
X248028D01*
X253275Y61216D01*
Y62528D01*
X251963Y63840D01*
X249340D01*
X248028Y62528D01*
X255899D02*
X257211Y63840D01*
X259835D01*
X261147Y62528D01*
Y57280D01*
X259835Y55968D01*
X257211D01*
X255899Y57280D01*
Y62528D01*
X269018Y55968D02*
X263771D01*
X269018Y61216D01*
Y62528D01*
X267706Y63840D01*
X265083D01*
X263771Y62528D01*
X271642D02*
X272954Y63840D01*
X275578D01*
X276890Y62528D01*
Y61216D01*
X275578Y59904D01*
X274266D01*
X275578D01*
X276890Y58592D01*
Y57280D01*
X275578Y55968D01*
X272954D01*
X271642Y57280D01*
X221904Y135592D02*
X219280D01*
X217969Y136904D01*
Y139528D01*
X219280Y140840D01*
X221904D01*
X223216Y139528D01*
Y138216D01*
X217969D01*
X231088Y143464D02*
Y135592D01*
X227152D01*
X225840Y136904D01*
Y139528D01*
X227152Y140840D01*
X231088D01*
X236335Y132968D02*
X237647D01*
X238959Y134280D01*
Y140840D01*
X235023D01*
X233712Y139528D01*
Y136904D01*
X235023Y135592D01*
X238959D01*
X245519D02*
X242895D01*
X241583Y136904D01*
Y139528D01*
X242895Y140840D01*
X245519D01*
X246831Y139528D01*
Y138216D01*
X241583D01*
X249454Y135592D02*
X252078D01*
X250766D01*
Y143464D01*
X249454D01*
X259950Y135592D02*
X257326D01*
X256014Y136904D01*
Y139528D01*
X257326Y140840D01*
X259950D01*
X261262Y139528D01*
Y138216D01*
X256014D01*
X263885Y135592D02*
X267821D01*
X269133Y136904D01*
X267821Y138216D01*
X265197D01*
X263885Y139528D01*
X265197Y140840D01*
X269133D01*
X271757Y135592D02*
X275693D01*
X277005Y136904D01*
X275693Y138216D01*
X273069D01*
X271757Y139528D01*
X273069Y140840D01*
X277005D01*
X279628Y135592D02*
Y136904D01*
X280940D01*
Y135592D01*
X279628D01*
X291436Y140840D02*
X287500D01*
X286188Y139528D01*
Y136904D01*
X287500Y135592D01*
X291436D01*
X299307Y140840D02*
X295371D01*
X294059Y139528D01*
Y136904D01*
X295371Y135592D01*
X299307D01*
X155538Y224840D02*
X152914D01*
X151602Y223528D01*
Y218280D01*
X152914Y216968D01*
X155538D01*
X156850Y218280D01*
Y223528D01*
X155538Y224840D01*
X159474Y216968D02*
X162097D01*
X160785D01*
Y224840D01*
X159474D01*
X166033Y216968D02*
X168657D01*
X167345D01*
Y222216D01*
X166033D01*
X172593D02*
X175216Y216968D01*
X177840Y222216D01*
X184400Y216968D02*
X181776D01*
X180464Y218280D01*
Y220904D01*
X181776Y222216D01*
X184400D01*
X185712Y220904D01*
Y219592D01*
X180464D01*
X189648Y223528D02*
Y222216D01*
X188336D01*
X190960D01*
X189648D01*
Y218280D01*
X190960Y216968D01*
X196207Y223528D02*
Y222216D01*
X194895D01*
X197519D01*
X196207D01*
Y218280D01*
X197519Y216968D01*
X201455D02*
X204079D01*
X202767D01*
Y222216D01*
X201455D01*
X215886Y216968D02*
Y224840D01*
X218510Y222216D01*
X221133Y224840D01*
Y216968D01*
X229005D02*
X223757D01*
X229005Y222216D01*
Y223528D01*
X227693Y224840D01*
X225069D01*
X223757Y223528D01*
X231629Y216968D02*
X234253D01*
X232941D01*
Y224840D01*
X231629Y223528D01*
X246060Y216968D02*
Y224840D01*
X249996D01*
X251308Y223528D01*
Y220904D01*
X249996Y219592D01*
X246060D01*
X248684D02*
X251308Y216968D01*
X253931D02*
X256555D01*
X255243D01*
Y222216D01*
X253931D01*
X260491Y216968D02*
X264427D01*
X265739Y218280D01*
X264427Y219592D01*
X261803D01*
X260491Y220904D01*
X261803Y222216D01*
X265739D01*
X272298Y216968D02*
X269674D01*
X268362Y218280D01*
Y220904D01*
X269674Y222216D01*
X272298D01*
X273610Y220904D01*
Y219592D01*
X268362D01*
X276234Y222216D02*
Y216968D01*
Y219592D01*
X277546Y220904D01*
X278858Y222216D01*
X280170D01*
X297224Y223528D02*
X295913Y224840D01*
X293289D01*
X291977Y223528D01*
Y218280D01*
X293289Y216968D01*
X295913D01*
X297224Y218280D01*
X301160Y222216D02*
X303784D01*
X305096Y220904D01*
Y216968D01*
X301160D01*
X299848Y218280D01*
X301160Y219592D01*
X305096D01*
X307720Y222216D02*
Y216968D01*
Y219592D01*
X309032Y220904D01*
X310344Y222216D01*
X311655D01*
X320839Y224840D02*
Y216968D01*
X316903D01*
X315591Y218280D01*
Y220904D01*
X316903Y222216D01*
X320839D01*
D14*
X353000Y221048D02*
X349064D01*
X351032Y219080D02*
Y223016D01*
X353000Y140048D02*
X349064D01*
X351032Y138080D02*
Y142016D01*
X353000Y60048D02*
X349064D01*
X351032Y58080D02*
Y62016D01*
X113079Y219952D02*
X117015D01*
X115047Y221920D02*
Y217984D01*
X113079Y139952D02*
X117015D01*
X115047Y141920D02*
Y137984D01*
X113079Y58952D02*
X117015D01*
X115047Y60920D02*
Y56984D01*
D15*
X115000Y73999D02*
X114001Y74999D01*
X112001D01*
X111002Y73999D01*
Y70001D01*
X112001Y69001D01*
X114001D01*
X115000Y70001D01*
X117000Y73999D02*
X117999Y74999D01*
X119999D01*
X120998Y73999D01*
Y73000D01*
X119999Y72000D01*
X118999D01*
X119999D01*
X120998Y71000D01*
Y70001D01*
X119999Y69001D01*
X117999D01*
X117000Y70001D01*
X115000Y153999D02*
X114001Y154999D01*
X112001D01*
X111002Y153999D01*
Y150001D01*
X112001Y149001D01*
X114001D01*
X115000Y150001D01*
X119999Y149001D02*
Y154999D01*
X117000Y152000D01*
X120998D01*
X115000Y235999D02*
X114001Y236999D01*
X112001D01*
X111002Y235999D01*
Y232001D01*
X112001Y231001D01*
X114001D01*
X115000Y232001D01*
X120998Y236999D02*
X117000D01*
Y234000D01*
X118999Y235000D01*
X119999D01*
X120998Y234000D01*
Y232001D01*
X119999Y231001D01*
X117999D01*
X117000Y232001D01*
X349000Y72999D02*
X348001Y73999D01*
X346001D01*
X345002Y72999D01*
Y69001D01*
X346001Y68001D01*
X348001D01*
X349000Y69001D01*
X351000Y73999D02*
X354998D01*
Y72999D01*
X351000Y69001D01*
Y68001D01*
X350000Y154999D02*
X349001Y155999D01*
X347001D01*
X346002Y154999D01*
Y151001D01*
X347001Y150001D01*
X349001D01*
X350000Y151001D01*
X352000Y154999D02*
X352999Y155999D01*
X354999D01*
X355998Y154999D01*
Y154000D01*
X354999Y153000D01*
X355998Y152000D01*
Y151001D01*
X354999Y150001D01*
X352999D01*
X352000Y151001D01*
Y152000D01*
X352999Y153000D01*
X352000Y154000D01*
Y154999D01*
X352999Y153000D02*
X354999D01*
X349079Y235999D02*
X348079Y236999D01*
X346080D01*
X345080Y235999D01*
Y232001D01*
X346080Y231001D01*
X348079D01*
X349079Y232001D01*
X351078D02*
X352078Y231001D01*
X354077D01*
X355077Y232001D01*
Y235999D01*
X354077Y236999D01*
X352078D01*
X351078Y235999D01*
Y235000D01*
X352078Y234000D01*
X355077D01*
M02*
