G04*
G04 #@! TF.GenerationSoftware,Altium Limited,Altium Designer,22.7.1 (60)*
G04*
G04 Layer_Color=16711935*
%FSLAX25Y25*%
%MOIN*%
G70*
G04*
G04 #@! TF.SameCoordinates,DFFA79DD-968F-4C92-B8CD-37D8C3B2A3C2*
G04*
G04*
G04 #@! TF.FilePolarity,Negative*
G04*
G01*
G75*
%ADD16R,3.15748X0.29994*%
%ADD18R,0.06201X0.30000*%
%ADD19C,0.05000*%
%ADD20R,0.05524X0.05524*%
%ADD21C,0.05524*%
D16*
X228740Y-14997D02*
D03*
D18*
X78740Y-15000D02*
D03*
X88740D02*
D03*
X98740D02*
D03*
X108740D02*
D03*
X118740D02*
D03*
X128740D02*
D03*
X138740D02*
D03*
X148740D02*
D03*
X158740D02*
D03*
X168740D02*
D03*
X178740D02*
D03*
X188740D02*
D03*
X198740D02*
D03*
X208740D02*
D03*
X218740D02*
D03*
X228740D02*
D03*
X238740D02*
D03*
X248740D02*
D03*
X258740D02*
D03*
X268740D02*
D03*
X278740D02*
D03*
X288740D02*
D03*
X298740D02*
D03*
X308740D02*
D03*
X318740D02*
D03*
X328740D02*
D03*
X338740D02*
D03*
X348740D02*
D03*
X358740D02*
D03*
X368740D02*
D03*
X378740D02*
D03*
D19*
Y250000D02*
D03*
X368740D02*
D03*
X358740D02*
D03*
X348740D02*
D03*
X338740D02*
D03*
X328740D02*
D03*
X318740D02*
D03*
X308740D02*
D03*
X298740D02*
D03*
X288740D02*
D03*
X278740D02*
D03*
X268740D02*
D03*
X258740D02*
D03*
X248740D02*
D03*
X238740D02*
D03*
X228740D02*
D03*
X218740D02*
D03*
X208740D02*
D03*
X198740D02*
D03*
X188740D02*
D03*
X178740D02*
D03*
X168740D02*
D03*
X158740D02*
D03*
X148740D02*
D03*
X138740D02*
D03*
X128740D02*
D03*
X118740D02*
D03*
X108740D02*
D03*
X98740D02*
D03*
X88740D02*
D03*
X78740D02*
D03*
X88740Y270000D02*
D03*
X78740D02*
D03*
X98740D02*
D03*
X108740D02*
D03*
X118740D02*
D03*
X128740D02*
D03*
X148740D02*
D03*
X158740D02*
D03*
X168740D02*
D03*
X138740D02*
D03*
X178740D02*
D03*
X188740D02*
D03*
X198740D02*
D03*
X208740D02*
D03*
X218740D02*
D03*
X228740D02*
D03*
X238740D02*
D03*
X248740D02*
D03*
X268740D02*
D03*
X288740D02*
D03*
X258740D02*
D03*
X298740D02*
D03*
X308740D02*
D03*
X318740D02*
D03*
X328740D02*
D03*
X338740D02*
D03*
X348740D02*
D03*
X358740D02*
D03*
X368740D02*
D03*
X378740D02*
D03*
X278740D02*
D03*
X378740Y170000D02*
D03*
X368740D02*
D03*
X358740D02*
D03*
X348740D02*
D03*
X338740D02*
D03*
X328740D02*
D03*
X318740D02*
D03*
X308740D02*
D03*
X298740D02*
D03*
X288740D02*
D03*
X278740D02*
D03*
X268740D02*
D03*
X258740D02*
D03*
X248740D02*
D03*
X238740D02*
D03*
X228740D02*
D03*
X218740D02*
D03*
X208740D02*
D03*
X198740D02*
D03*
X188740D02*
D03*
X178740D02*
D03*
X168740D02*
D03*
X158740D02*
D03*
X148740D02*
D03*
X138740D02*
D03*
X128740D02*
D03*
X118740D02*
D03*
X108740D02*
D03*
X98740D02*
D03*
X88740D02*
D03*
X78740D02*
D03*
X88740Y190000D02*
D03*
X78740D02*
D03*
X98740D02*
D03*
X108740D02*
D03*
X118740D02*
D03*
X128740D02*
D03*
X148740D02*
D03*
X158740D02*
D03*
X168740D02*
D03*
X138740D02*
D03*
X178740D02*
D03*
X188740D02*
D03*
X198740D02*
D03*
X208740D02*
D03*
X218740D02*
D03*
X228740D02*
D03*
X238740D02*
D03*
X248740D02*
D03*
X268740D02*
D03*
X288740D02*
D03*
X258740D02*
D03*
X298740D02*
D03*
X308740D02*
D03*
X318740D02*
D03*
X328740D02*
D03*
X338740D02*
D03*
X348740D02*
D03*
X358740D02*
D03*
X368740D02*
D03*
X378740D02*
D03*
X278740D02*
D03*
X378740Y90000D02*
D03*
X368740D02*
D03*
X358740D02*
D03*
X348740D02*
D03*
X338740D02*
D03*
X328740D02*
D03*
X318740D02*
D03*
X308740D02*
D03*
X298740D02*
D03*
X288740D02*
D03*
X278740D02*
D03*
X268740D02*
D03*
X258740D02*
D03*
X248740D02*
D03*
X238740D02*
D03*
X228740D02*
D03*
X218740D02*
D03*
X208740D02*
D03*
X198740D02*
D03*
X188740D02*
D03*
X178740D02*
D03*
X168740D02*
D03*
X158740D02*
D03*
X148740D02*
D03*
X138740D02*
D03*
X128740D02*
D03*
X118740D02*
D03*
X108740D02*
D03*
X98740D02*
D03*
X88740D02*
D03*
X78740D02*
D03*
X88740Y110000D02*
D03*
X78740D02*
D03*
X98740D02*
D03*
X108740D02*
D03*
X118740D02*
D03*
X128740D02*
D03*
X148740D02*
D03*
X158740D02*
D03*
X168740D02*
D03*
X138740D02*
D03*
X178740D02*
D03*
X188740D02*
D03*
X198740D02*
D03*
X208740D02*
D03*
X218740D02*
D03*
X228740D02*
D03*
X238740D02*
D03*
X248740D02*
D03*
X268740D02*
D03*
X288740D02*
D03*
X258740D02*
D03*
X298740D02*
D03*
X308740D02*
D03*
X318740D02*
D03*
X328740D02*
D03*
X338740D02*
D03*
X348740D02*
D03*
X358740D02*
D03*
X368740D02*
D03*
X378740D02*
D03*
X278740D02*
D03*
X378740Y10000D02*
D03*
X368740D02*
D03*
X358740D02*
D03*
X348740D02*
D03*
X338740D02*
D03*
X328740D02*
D03*
X318740D02*
D03*
X308740D02*
D03*
X298740D02*
D03*
X288740D02*
D03*
X278740D02*
D03*
X268740D02*
D03*
X258740D02*
D03*
X248740D02*
D03*
X238740D02*
D03*
X228740D02*
D03*
X218740D02*
D03*
X208740D02*
D03*
X198740D02*
D03*
X188740D02*
D03*
X178740D02*
D03*
X168740D02*
D03*
X158740D02*
D03*
X148740D02*
D03*
X138740D02*
D03*
X128740D02*
D03*
X118740D02*
D03*
X108740D02*
D03*
X98740D02*
D03*
X88740D02*
D03*
X78740D02*
D03*
X88740Y30000D02*
D03*
X78740D02*
D03*
X98740D02*
D03*
X108740D02*
D03*
X118740D02*
D03*
X128740D02*
D03*
X148740D02*
D03*
X158740D02*
D03*
X168740D02*
D03*
X138740D02*
D03*
X178740D02*
D03*
X188740D02*
D03*
X198740D02*
D03*
X208740D02*
D03*
X218740D02*
D03*
X228740D02*
D03*
X238740D02*
D03*
X248740D02*
D03*
X268740D02*
D03*
X288740D02*
D03*
X258740D02*
D03*
X298740D02*
D03*
X308740D02*
D03*
X318740D02*
D03*
X328740D02*
D03*
X338740D02*
D03*
X348740D02*
D03*
X358740D02*
D03*
X368740D02*
D03*
X378740D02*
D03*
X278740D02*
D03*
D20*
X363079Y221000D02*
D03*
Y140000D02*
D03*
Y60000D02*
D03*
X103000Y220000D02*
D03*
Y140000D02*
D03*
Y59000D02*
D03*
D21*
X372921Y221000D02*
D03*
Y140000D02*
D03*
Y60000D02*
D03*
X93158Y220000D02*
D03*
Y140000D02*
D03*
Y59000D02*
D03*
M02*
